<?xml version="1.0" encoding="UTF-8"?>
<!DOCTYPE svg PUBLIC "-//W3C//DTD SVG 1.1//EN" "http://www.w3.org/Graphics/SVG/1.1/DTD/svg11.dtd">
<!-- Creator: CorelDRAW -->
<svg xmlns="http://www.w3.org/2000/svg" xml:space="preserve" width="2048px" height="2048px" style="shape-rendering:geometricPrecision; text-rendering:geometricPrecision; image-rendering:optimizeQuality; fill-rule:evenodd; clip-rule:evenodd"
viewBox="0 0 2048 2048"
 xmlns:xlink="http://www.w3.org/1999/xlink">
 <defs>
  <style type="text/css">
   <![CDATA[
    .fil2 {fill:none}
    .fil0 {fill:#424242}
    .fil1 {fill:#424242;fill-rule:nonzero}
   ]]>
  </style>
 </defs>
 <g id="Layer_x0020_1">
  <metadata id="CorelCorpID_0Corel-Layer"/>
  <g id="_477071800">
   <path id="_477072040" class="fil0" d="M346.933 1688.54c0.153543,-0.011811 0.304725,-0.0248032 0.454725,-0.034252 16.7563,-1.18701 32.9788,-7.31812 45.0579,-19.2083 12.7358,-12.5362 19.8236,-29.4425 19.9902,-47.302l0.0236221 -2.57008c-0.0011811,-0.116929 -0.0011811,-0.233858 -0.0011811,-0.350788l3.4441 -418.583 3.71221 -4.57559c4.28859,-5.28898 8.00434,-11.0315 11.074,-17.1106 5.04685,-9.9945 8.29371,-20.7626 9.62599,-31.8792l33.7996 -281.91 61.7623 78.5918c0.579922,0.737008 1.04055,1.44567 1.5874,2.19567 0.298819,0.382677 0.602363,0.713386 0.920079,1.08071 6.85985,7.97717 15.2032,14.6374 24.8658,18.8929 10.2284,4.50709 22.0571,5.37756 33.1063,5.5252l132.637 21.8847c0.137008,-0.00944883 0.274016,-0.0200788 0.409843,-0.0283465 16.7669,-1.09134 33.0154,-7.15512 45.1418,-18.9992 12.8197,-12.5221 20.0043,-29.4544 20.2134,-47.3658 0.206693,-17.7886 -6.57048,-34.7457 -19.0004,-47.4721 -12.4996,-12.7949 -29.3882,-19.9736 -47.2654,-20.2122l-2.84882 -0.0389764c-0.0129921,0 -0.0236221,0 -0.0354331,0l-101.992 -21.4713 -145.362 -184.967c-8.46497,-10.7717 -17.7744,-22.3181 -29.4248,-29.8158 -12.2327,-7.86969 -26.0067,-12.8162 -40.4528,-14.5205 -25.1421,-2.96811 -50.5347,4.18819 -70.4127,19.8685 -20.0173,15.7866 -32.7815,38.6315 -35.8146,63.9449l-51.8481 432.436c-2.01142,16.7705 0.570473,33.6107 7.28741,49.0914 4.65118,10.7221 11.2264,20.5524 19.3748,28.9299l4.82481 4.95945 -3.40158 413.449c-0.147638,17.8477 6.70158,34.8355 19.2225,47.5559 12.5386,12.7358 29.4437,19.8236 47.302,19.9902l2.02205 0.0188977z"/>
   <path id="_477072568" class="fil1" d="M442.445 360.227c29.3953,3.52559 54.5752,18.6236 71.5205,40.1859 16.9453,21.5622 25.6701,49.5709 22.154,78.9048 -3.52441,29.3953 -18.6248,54.5764 -40.1859,71.5193 -21.5634,16.9477 -49.5697,25.6701 -78.9048,22.154 -29.3953,-3.52441 -54.5764,-18.6248 -71.5205,-40.1847 -16.9453,-21.5646 -25.6689,-49.5733 -22.1528,-78.906 3.52323,-29.3941 18.6236,-54.5752 40.1847,-71.5182 21.5634,-16.9477 49.5709,-25.6713 78.9048,-22.1551z"/>
   <path id="_477072496" class="fil1" d="M1346.07 945.879c-0.614174,0.510237 -1.38189,1.15748 0.0200788,0.0248032l-0.0200788 -0.0248032z"/>
   <path id="_477072664" class="fil0" d="M1285.02 1167.64c-0.0377953,0.00826772 -0.0732284,0.0177165 -0.109843,0.0271654 -10.9665,2.73071 -21.6,6.53386 -29.0847,15.4382 -9.84213,11.7106 -11.8075,27.9886 -11.4791,42.7465l0.0188977 0.843308c0.0791339,0.627166 0.161811,1.25669 0.22441,1.8874l33.013 330.131c1.33347,13.3382 7.76221,25.4339 18.1276,33.9414 10.3583,8.50158 23.4756,12.5197 36.8209,11.2063 13.3288,-1.31102 25.3937,-7.77402 33.8882,-18.1228 8.48741,-10.3394 12.5457,-23.439 11.211,-36.7677l-28.9725 -289.732 31.9984 -4.53544c68.5784,-9.72048 136.85,-21.4819 205.36,-31.6654 19.6217,-2.91614 37.2307,-10.2508 49.0737,-26.7544 19.213,-26.778 18.7949,-70.1599 15.1949,-101.443 -5.71418,-49.6536 -11.1012,-99.3391 -17.0303,-148.969 -4.62166,-38.6729 -9.45827,-77.4012 -15.2811,-115.912 -3.67441,-24.3 -7.67481,-52.9512 -14.7248,-76.4528 -5.25119,-17.5075 -14.002,-34.741 -28.1185,-46.754 -9.21733,-7.84134 -20.0138,-13.4256 -31.8248,-16.1268 -11.8665,-2.71418 -24.1335,-2.47441 -35.9386,0.441733 -27.1595,6.70867 -78.7217,59.3386 -97.9985,79.7257 -20.778,21.9732 -40.6748,44.8016 -60.2138,67.8804 -12.9106,15.248 -25.7044,31.4162 -39.1465,46.1315l-7.78583 8.52402 -133.798 22.9725c-19.324,3.31772 -39.4654,10.9547 -47.0315,30.5504 -2.50512,6.48898 -3.71103,13.5236 -3.63071,20.4732 0.0814961,6.99804 1.40551,14.0823 4.08189,20.5595 6.99804,16.9335 27.7996,32.4296 46.7138,29.1827 37.3902,-6.41693 74.5123,-11.2276 112.054,-16.3134 17.6209,-2.38583 37.8449,-4.93701 54.4489,-11.537 27.3059,-10.8543 57.0355,-40.6382 77.843,-60.6603l47.2902 -45.5044 36.2315 250.65 -211.425 33.9366z"/>
   <path id="_477071272" class="fil1" d="M1404.77 449.989c19.0228,-24.2043 47.2902,-41.1555 80.289,-45.1122 32.9303,-3.94725 64.3725,5.84528 88.5804,24.8705 24.2032,19.0217 41.1555,47.2902 45.1111,80.289 3.94725,32.9292 -5.84528,64.3713 -24.8693,88.5792 -19.0217,24.2043 -47.2902,41.1555 -80.2902,45.1134 -32.9315,3.94725 -64.3725,-5.84646 -88.5792,-24.8705 -24.2043,-19.0217 -41.1567,-47.2902 -45.1134,-80.289 -3.94607,-32.9303 5.84764,-64.3737 24.8717,-88.5804z"/>
   <path id="_477071632" class="fil1" d="M1785.25 900.12c2.95866,-20.798 -11.5028,-40.0583 -32.2996,-43.0181 -20.7969,-2.95984 -40.0595,11.5039 -43.0181,32.3008 5.88898,70.5036 1.40906,357.803 -40.5579,367.42 -38.8748,36.5835 -162.392,11.4532 -227.785,15.6827 -18.5256,1.59803 -33.3437,25.5862 -31.7469,44.113 1.59685,18.5256 17.9114,32.2488 36.4382,30.6508 8.96812,-0.779528 160.122,-4.93465 160.119,-4.96772 56.8075,-4.72323 89.693,-10.3689 116.119,-44.4355 22.5792,-29.1107 32.9729,-75.4205 45.2162,-161.501l17.5158 -236.245z"/>
   <path id="_477071584" class="fil1" d="M1563.36 1534.6c0,18.5988 15.078,33.6768 33.6768,33.6768 18.5977,0 33.6768,-15.078 33.6768,-33.6768l0 -67.3524c0,-18.5977 -15.0791,-33.6768 -33.6768,-33.6768 -18.5988,0 -33.6768,15.0791 -33.6768,33.6768l0 67.3524z"/>
   <path id="_477071320" class="fil1" d="M1580.19 1458.54c0,9.29883 7.54016,16.839 16.839,16.839 9.29764,0 16.8378,-7.54016 16.8378,-16.839l0 -119.119c0,-9.29764 -7.54016,-16.8378 -16.8378,-16.8378 -9.29883,0 -16.839,7.54016 -16.839,16.8378l0 119.119z"/>
   <path id="_477071560" class="fil1" d="M1486.96 1584.15c-8.2819,4.213 -11.5795,14.3445 -7.36772,22.6264 4.213,8.2819 14.3445,11.5795 22.6264,7.36654l94.1812 -47.941 95.5843 47.941c8.2819,4.14095 18.3532,0.783071 22.4941,-7.49882 4.13977,-8.2819 0.783071,-18.3532 -7.49882,-22.4941l-101.785 -51.0496c-4.84252,-3.01536 -11.0988,-3.49843 -16.5543,-0.721654l0.00472441 0.0106299 -101.685 51.7607z"/>
   <polygon id="_477071464" class="fil1" points="721.46,1082.38 1015.5,1082.38 1049.18,1082.38 1049.18,1116.06 1049.18,1636.96 1049.18,1670.64 1015.5,1670.64 721.46,1670.64 687.784,1670.64 687.784,1636.96 687.784,1116.06 687.784,1082.38 "/>
   <polygon id="_477071776" class="fil1" points="620.434,1082.38 1159.25,1082.38 1159.25,1149.73 620.434,1149.73 "/>
  </g>
 </g>
 <rect class="fil2" width="2048" height="2048"/>
</svg>
